<svg width="37" height="36" viewBox="0 0 37 36" fill="none" xmlns="http://www.w3.org/2000/svg">
<path fill-rule="evenodd" clip-rule="evenodd" d="M15.3054 1.065C17.1941 -0.354999 19.8059 -0.355001 21.6946 1.065L33.8633 10.2137C35.8393 11.6993 37 14.0157 37 16.4737V30.7617C37 33.6547 34.6335 36 31.7143 36H26.4286C23.5094 36 21.1429 33.6547 21.1429 30.7617V21.5946H15.8571V30.7617C15.8571 33.6547 13.4906 36 10.5714 36H5.28571C2.36649 36 0 33.6547 0 30.7617V16.4737C0 14.0157 1.16066 11.6993 3.13665 10.2137L15.3054 1.065ZM30.6687 14.3871L18.5 5.23834L6.33126 14.3871C5.6726 14.8823 5.28571 15.6544 5.28571 16.4737V30.7617H10.5714V21.5946C10.5714 18.7015 12.9379 16.3562 15.8571 16.3562H21.1429C24.0621 16.3562 26.4286 18.7015 26.4286 21.5946V30.7617L31.7143 30.7617V16.4737C31.7143 15.6544 31.3274 14.8823 30.6687 14.3871Z" fill="white"/>
</svg>
