<svg width="39" height="35" viewBox="0 0 39 35" fill="none" xmlns="http://www.w3.org/2000/svg">
<path d="M17.3036 6.58838H19.341C19.341 6.58838 32.2282 6.58838 34.0338 8.42704C37.562 12.0712 37.562 26.7474 34.0338 30.3916C32.2282 32.2634 19.341 32.28 19.341 32.28H17.8833C14.4545 32.28 6.07281 31.899 4.6317 30.4413C1.12001 26.7474 1.12001 12.0712 4.64826 8.39391C6.16954 7.5478 7.87704 7.09247 9.61763 7.06875C12.2017 6.75402 15.3158 6.62151 17.3036 6.58838Z" stroke="white" stroke-width="4" stroke-linecap="round" stroke-linejoin="round"/>
<path d="M25.8464 19.871C26.1023 16.2757 23.395 13.1537 19.7997 12.8979C16.2043 12.642 13.0823 15.3493 12.8265 18.9446C12.5707 22.54 15.2779 25.662 18.8733 25.9178C22.4686 26.1736 25.5906 23.4664 25.8464 19.871Z" stroke="white" stroke-width="4" stroke-linecap="round" stroke-linejoin="round"/>
<path d="M9.55078 7.06875V3.88836C9.56374 3.38302 9.77364 2.90274 10.1357 2.54996C10.4978 2.19719 10.9833 1.99983 11.4888 2H15.3649C15.8692 2.00398 16.3524 2.20269 16.7136 2.5546C17.0747 2.90651 17.2859 3.38438 17.303 3.88836V6.53869C15.3152 6.62151 12.2011 6.75403 9.55078 7.06875Z" stroke="white" stroke-width="4" stroke-linecap="round" stroke-linejoin="round"/>
<path d="M29.7109 11.5244V13.0815" stroke="white" stroke-width="4" stroke-linecap="round" stroke-linejoin="round"/>
</svg>
