<svg width="42" height="39" viewBox="0 0 42 39" fill="none" xmlns="http://www.w3.org/2000/svg">
<path d="M11.5815 15.0121C10.9828 13.6971 10.6612 12.2729 10.6367 10.8282C10.9208 8.39669 12.0881 6.15419 13.9168 4.52667C15.7456 2.89915 18.1084 2 20.5565 2C23.0046 2 25.3674 2.89915 27.1962 4.52667C29.0249 6.15419 30.1922 8.39669 30.4764 10.8282C30.4373 12.2711 30.1163 13.6924 29.5316 15.0121" stroke="white" stroke-width="4" stroke-linecap="round" stroke-linejoin="round"/>
<path d="M10.0978 26.4841C7.82224 26.0723 5.76401 24.8731 4.28355 23.0966C2.80308 21.32 1.99474 19.0793 2.00003 16.7668C2.00003 11.3682 5.64405 7.99414 11.0426 7.99414" stroke="white" stroke-width="4" stroke-linecap="round" stroke-linejoin="round"/>
<path d="M29.9375 7.99414C35.471 7.99414 39.115 11.3682 39.115 16.7668C39.1203 19.0793 38.3119 21.32 36.8315 23.0966C35.351 24.8731 33.2928 26.0723 31.0172 26.4841" stroke="white" stroke-width="4" stroke-linecap="round" stroke-linejoin="round"/>
<path d="M10.0977 26.4839V36.7411H30.882V26.4839" stroke="white" stroke-width="4" stroke-linecap="round" stroke-linejoin="round"/>
<path d="M10.0977 31.6128H30.882" stroke="white" stroke-width="4" stroke-linecap="round" stroke-linejoin="round"/>
<path d="M20.4883 31.6124V26.2139" stroke="white" stroke-width="4" stroke-linecap="round" stroke-linejoin="round"/>
</svg>
