<svg width="38" height="39" viewBox="0 0 38 39" fill="none" xmlns="http://www.w3.org/2000/svg">
<path fill-rule="evenodd" clip-rule="evenodd" d="M14.92 3.33333C16.0971 2.46785 17.5287 2 19 2C20.4713 2 21.9029 2.46785 23.08 3.33333L27.5 6.58333V3.66667C27.5 2.74619 28.2611 2 29.2 2C30.1389 2 30.9 2.74619 30.9 3.66667V9.08333L33.28 10.8333C34.9923 12.0924 36 14.0683 36 16.1667V32C36 34.7614 33.7167 37 30.9 37H7.1C4.28335 37 2 34.7614 2 32V16.1667C2 14.0683 3.00772 12.0924 4.72 10.8333L14.92 3.33333ZM20.7 33.6667V25.3333C20.7 24.4129 19.9389 23.6667 19 23.6667C18.0611 23.6667 17.3 24.4129 17.3 25.3333V33.6667H7.1C6.16112 33.6667 5.4 32.9205 5.4 32V16.1667C5.4 15.1175 5.90386 14.1295 6.76 13.5L16.96 6C17.5485 5.56726 18.2643 5.33333 19 5.33333C19.7357 5.33333 20.4515 5.56726 21.04 6L31.24 13.5C32.0961 14.1295 32.6 15.1175 32.6 16.1667V32C32.6 32.9205 31.8389 33.6667 30.9 33.6667H20.7Z" fill="white" stroke="white" stroke-width="3" stroke-linecap="round" stroke-linejoin="round"/>
</svg>
