<svg width="26" height="37" viewBox="0 0 26 37" fill="none" xmlns="http://www.w3.org/2000/svg">
<path d="M13 34.7088C12.7447 34.4058 12.4526 34.0545 12.1317 33.6606C10.9323 32.1885 9.33562 30.129 7.74194 27.776C6.14537 25.4188 4.57045 22.7942 3.39927 20.19C2.2192 17.5661 1.5 15.0735 1.5 12.95C1.5 6.62437 6.63583 1.5 13 1.5C19.3642 1.5 24.5 6.62437 24.5 12.95C24.5 15.0735 23.7808 17.5661 22.6007 20.19C21.4296 22.7942 19.8546 25.4188 18.2581 27.776C16.6644 30.129 15.0677 32.1885 13.8683 33.6606C13.5474 34.0545 13.2553 34.4058 13 34.7088ZM8.65839 17.2831C9.81084 18.4311 11.3727 19.075 13 19.075C14.6273 19.075 16.1892 18.4311 17.3416 17.2831C18.4943 16.1349 19.1429 14.5763 19.1429 12.95C19.1429 11.3237 18.4943 9.76514 17.3416 8.61693C16.1892 7.46891 14.6273 6.825 13 6.825C11.3727 6.825 9.81084 7.46891 8.65839 8.61693C7.50574 9.76514 6.85714 11.3237 6.85714 12.95C6.85714 14.5763 7.50574 16.1349 8.65839 17.2831Z" stroke="white" stroke-width="3"/>
</svg>
